<?xml version="1.0" standalone="no"?>
<!DOCTYPE svg PUBLIC "-//W3C//DTD SVG 20010904//EN"
 "http://www.w3.org/TR/2001/REC-SVG-20010904/DTD/svg10.dtd">
<svg version="1.0" xmlns="http://www.w3.org/2000/svg"
 width="174.000000pt" height="73.000000pt" viewBox="0 0 174.000000 73.000000"
 preserveAspectRatio="xMidYMid meet">
<metadata>
Created by potrace 1.10, written by Peter Selinger 2001-2011
</metadata>
<g transform="translate(0.000000,73.000000) scale(0.100000,-0.100000)"
fill="#000000" stroke="none">
<path d="M144 623 c-18 -3 -23 -14 -29 -61 -3 -31 -15 -95 -26 -141 -11 -46
-17 -86 -15 -88 2 -3 25 -1 50 2 54 8 112 44 110 68 -1 9 3 14 9 10 16 -10 0
55 -18 73 -20 20 -19 24 4 19 14 -2 23 5 32 28 32 76 -14 110 -117 90z m59
-57 c19 -5 26 -3 22 4 -3 5 -1 10 5 10 20 0 23 -31 4 -48 -17 -16 -17 -16 -3
2 14 19 13 19 -19 2 -38 -20 -52 -15 -44 16 3 12 1 19 -4 15 -6 -3 -11 4 -11
15 -2 17 0 18 10 5 7 -8 25 -18 40 -21z m-44 -67 c1 8 4 11 8 8 3 -4 13 -1 21
6 12 10 14 9 11 -2 -6 -18 -42 -31 -58 -22 -7 5 -9 15 -4 27 6 17 8 17 14 -6
4 -14 7 -19 8 -11z m42 -35 c11 -14 10 -19 -10 -35 -30 -24 -41 -24 -41 0 0
49 25 66 51 35z m-51 -74 c0 -5 -9 -14 -20 -20 -17 -9 -20 -8 -20 10 0 13 7
20 20 20 11 0 20 -4 20 -10z"/>
<path d="M340 604 c-34 -29 -64 -81 -75 -133 -5 -23 -4 -31 4 -27 6 4 13 -4
17 -19 3 -13 10 -22 15 -19 5 3 9 1 9 -4 0 -6 -7 -12 -15 -16 -15 -5 -18 3
-16 34 0 8 -5 4 -11 -9 -15 -29 5 -70 40 -82 15 -6 21 -5 17 1 -3 6 2 10 12
10 54 0 123 121 123 215 0 74 -60 99 -120 49z m65 -114 c-8 -45 -35 -85 -64
-93 -38 -10 -37 44 2 115 35 65 74 51 62 -22z"/>
<path d="M550 614 c-45 -28 -100 -139 -100 -200 0 -35 20 -72 42 -77 91 -24
197 154 154 257 -12 29 -20 36 -43 36 -15 0 -39 -8 -53 -16z m64 -39 c-4 -8
-10 -15 -14 -15 -4 0 -5 -11 -2 -25 12 -63 -25 -135 -68 -135 -16 0 -20 7 -20
30 0 34 35 110 50 110 5 0 14 10 21 22 10 18 9 20 -5 15 -9 -4 -16 -2 -16 3 0
6 13 10 30 10 22 0 28 -4 24 -15z m-126 -140 c-3 -25 -2 -45 3 -45 5 0 9 -5 9
-12 0 -9 -3 -9 -12 0 -20 20 -21 102 -2 102 4 0 4 -20 2 -45z"/>
<path d="M808 623 c-21 -5 -68 -84 -68 -112 0 -12 -5 -21 -12 -21 -6 0 -8 -3
-5 -6 4 -4 13 -1 22 6 13 11 15 9 15 -14 0 -15 5 -36 10 -47 8 -15 7 -19 -5
-19 -8 0 -15 9 -15 19 0 11 -5 23 -11 27 -8 5 -9 -9 -4 -47 4 -30 9 -58 12
-62 5 -8 61 -3 70 7 3 3 15 -1 26 -9 12 -9 31 -12 51 -8 99 19 122 109 45 173
-21 18 -28 31 -23 43 8 22 19 22 44 -3 27 -27 38 -25 46 5 14 57 -27 82 -91
57 -87 -35 -96 -83 -28 -150 46 -45 47 -45 24 -56 -16 -7 -28 -6 -42 2 -27 17
-39 15 -39 -7 0 -29 -19 -35 -25 -9 -25 111 -26 138 -4 138 5 0 9 6 9 13 0 7
8 22 18 33 45 50 46 54 21 53 -13 -1 -32 -3 -41 -6z m-10 -65 c-8 -7 -21 -22
-27 -33 -11 -18 -12 -17 -6 8 7 36 27 58 39 46 6 -5 4 -14 -6 -21z m98 -23
c-3 -33 -13 -60 -13 -32 0 7 -3 25 -7 40 -5 20 -3 27 8 27 10 0 13 -10 12 -35z"/>
<path d="M1215 606 c-15 -13 -24 -29 -21 -35 5 -7 2 -10 -6 -9 -19 4 -51 -69
-56 -129 -6 -73 16 -107 61 -97 77 17 137 108 137 207 0 82 -56 113 -115 63z
m86 -26 c5 0 8 -21 7 -47 -1 -40 -2 -42 -5 -13 -6 56 -11 64 -28 50 -10 -9
-15 -9 -15 -1 0 6 -8 11 -17 11 -11 1 -6 6 12 14 25 11 31 10 33 -1 2 -7 8
-13 13 -13z m-24 -76 c-6 -53 -34 -98 -66 -102 -19 -3 -21 1 -21 42 0 25 5 46
10 46 6 0 10 7 10 16 0 20 28 43 54 44 16 0 18 -6 13 -46z"/>
<path d="M1593 623 c-29 -2 -53 -6 -53 -9 0 -3 -9 -49 -19 -102 -11 -54 -22
-115 -26 -138 l-6 -41 48 8 c26 4 56 8 66 8 11 1 17 9 17 27 0 22 -4 25 -30
22 -32 -3 -32 -2 -24 41 5 26 10 29 38 28 26 -2 31 2 32 21 1 18 -4 22 -28 22
-23 0 -29 4 -24 16 3 9 6 26 6 38 0 19 4 21 35 18 32 -4 35 -2 35 22 0 14 -3
25 -7 24 -5 -1 -32 -3 -60 -5z m-24 -130 c1 -16 -25 -17 -35 -1 -4 7 -3 8 4 4
7 -4 12 -1 12 8 0 9 -5 16 -10 16 -6 0 -5 6 2 14 11 12 14 11 20 -8 3 -11 6
-27 7 -33z"/>
<path d="M682 580 c-1 -22 -11 -80 -22 -130 -27 -119 -27 -119 11 -111 29 6
32 11 36 46 1 22 6 51 9 65 9 41 -14 10 -31 -41 l-14 -44 5 50 c3 28 8 64 11
80 5 27 7 28 14 10 6 -17 8 -16 9 10 1 17 2 44 1 60 l-1 30 14 -30 c8 -16 15
-23 15 -15 1 8 4 25 7 38 6 20 3 22 -28 22 -34 0 -35 -1 -36 -40z"/>
<path d="M1020 595 c0 -16 6 -25 15 -25 10 0 15 -10 15 -29 0 -31 -24 -165
-35 -192 -5 -12 2 -15 38 -15 38 1 43 3 40 21 -2 11 2 61 10 110 8 50 13 93
12 96 -2 3 5 5 17 5 15 -1 23 7 29 27 l7 27 -74 0 c-72 0 -74 -1 -74 -25z m80
-36 c-12 -40 -20 -49 -20 -21 0 11 -3 27 -6 36 -4 11 0 16 14 16 18 0 20 -4
12 -31z"/>
<path d="M1355 563 c-4 -32 -16 -96 -26 -142 -11 -46 -18 -85 -17 -86 2 -1 18
2 36 7 28 8 32 13 32 42 0 19 3 41 6 50 4 10 1 16 -9 16 -9 0 -18 -8 -20 -17
-3 -10 -3 0 0 22 2 22 5 46 5 53 1 7 7 11 13 8 16 -6 35 13 35 36 0 13 8 18
26 18 38 0 28 -38 -16 -61 -20 -11 -27 -19 -18 -19 21 0 38 -30 37 -62 -1 -19
-2 -18 -8 6 -3 17 -13 30 -24 32 -10 1 -14 -2 -10 -9 4 -6 12 -34 18 -61 12
-55 21 -62 49 -41 19 15 19 16 2 65 l-18 49 26 28 c31 33 44 87 26 108 -9 10
-32 15 -76 15 l-63 0 -6 -57z"/>
<path d="M333 235 c-56 -24 -65 -72 -17 -93 25 -12 32 -36 14 -47 -6 -4 -18
-1 -26 6 -13 10 -17 10 -25 -2 -26 -41 25 -65 69 -32 38 28 40 66 6 98 -22 20
-25 28 -15 38 9 9 14 9 20 -1 9 -16 41 -5 41 14 0 24 -33 33 -67 19z"/>
<path d="M432 242 c-9 -6 -55 -183 -49 -188 1 -1 19 1 40 4 23 2 37 10 37 18
0 8 -7 14 -15 14 -8 0 -15 6 -15 13 0 7 7 39 15 70 21 80 19 89 -13 69z"/>
<path d="M511 221 c-53 -57 -61 -162 -12 -169 35 -5 88 57 97 115 12 81 -33
109 -85 54z m57 -47 c3 -25 -35 -87 -51 -81 -18 6 -12 65 9 88 21 23 38 20 42
-7z"/>
<path d="M657 239 c-43 -25 -75 -147 -45 -177 18 -18 63 -15 80 6 18 22 40 73
34 79 -8 8 -66 -8 -66 -18 0 -5 7 -9 15 -9 20 0 19 -14 -1 -31 -14 -11 -18
-11 -29 5 -23 30 23 142 48 117 11 -11 47 -15 47 -5 0 3 -5 14 -10 25 -12 21
-45 24 -73 8z"/>
<path d="M798 243 c-24 -4 -30 -13 -53 -88 -14 -45 -25 -87 -25 -93 0 -18 38
-1 43 19 7 27 27 24 27 -4 0 -21 4 -24 38 -21 20 1 40 2 43 3 4 1 9 22 12 47
6 60 23 77 19 18 -5 -57 2 -74 26 -67 15 4 22 20 31 71 6 37 14 79 17 95 5 20
2 27 -9 27 -9 0 -18 -13 -22 -32 -14 -69 -20 -74 -25 -23 -4 41 -9 51 -26 53
-19 3 -22 -5 -33 -83 -18 -119 -36 -124 -27 -7 4 51 3 91 -1 91 -4 -1 -20 -4
-35 -6z m4 -73 c-3 -35 -8 -50 -18 -50 -15 0 -12 25 7 78 12 33 14 28 11 -28z"/>
<path d="M1045 238 c-9 -31 -36 -181 -32 -184 13 -14 38 13 43 46 4 22 13 41
21 45 13 4 14 -2 8 -41 -6 -41 -5 -45 12 -42 12 2 19 13 21 33 2 29 17 101 28
138 4 12 0 17 -14 17 -16 0 -22 -9 -27 -40 -4 -25 -12 -40 -21 -40 -17 0 -17
5 -5 48 9 28 7 32 -10 32 -11 0 -21 -6 -24 -12z"/>
<path d="M1189 243 c-25 -4 -28 -9 -38 -76 -6 -40 -14 -83 -18 -96 -5 -20 -3
-23 11 -18 10 4 29 7 42 7 15 0 24 6 24 15 0 8 -7 15 -15 15 -9 0 -15 9 -15
25 0 18 5 25 20 25 11 0 20 7 20 15 0 8 -7 15 -16 15 -25 0 -13 44 14 48 12 2
22 10 22 18 0 14 -3 14 -51 7z"/>
<path d="M1274 243 c-18 -3 -23 -16 -33 -71 -6 -37 -14 -79 -17 -94 -5 -23 -3
-26 14 -21 15 3 22 15 24 37 4 41 22 40 26 -2 3 -30 6 -33 27 -28 13 3 25 2
27 -3 4 -13 81 2 86 17 2 7 -5 12 -17 12 -30 0 -30 47 1 52 28 4 36 28 9 28
-14 0 -21 6 -21 20 0 14 7 20 24 20 13 0 27 7 30 16 9 23 4 26 -42 18 l-40 -6
-11 -62 c-6 -35 -11 -70 -11 -79 0 -27 -16 -20 -30 13 -11 26 -9 32 9 56 25
32 27 69 5 78 -16 6 -25 6 -60 -1z m46 -47 c0 -8 -7 -17 -16 -20 -23 -9 -24
-8 -24 14 0 13 7 20 20 20 11 0 20 -6 20 -14z"/>
</g>
</svg>
